<svg xmlns="http://www.w3.org/2000/svg" viewBox="0 0 618.8 170.15"><defs><style>.a{fill:#5b7bbb;}</style></defs><title>logo_1</title><path class="a" d="M170.69,348.67c12.31-11.15,57.22-37.82-31.37-104.73,73.39,21.33,107.82,37.43,112.21,48.34,5.9,14.65-62.66,48.12-80.84,56.39m110.65-50.34a85.07,85.07,0,1,0-85.07,85.07,85.07,85.07,0,0,0,85.07-85.07m309.75,60.78h6.45v-23h7.75v-5.4H583.46v5.4h7.63Zm-13.2-17.24H567.43V336h11.09v-5.27H561v28.42h18.13v-5.27H567.43v-6.75h10.46Zm-36.64,17.24h6.45v-23h7.76v-5.4H533.62v5.4h7.63Zm-36.67-28.42v28.42h7.33l5.78-10.25a82.55,82.55,0,0,0,4.8-10.11h.13a117.73,117.73,0,0,0-.46,12v8.39h5.9V330.69h-6.58l-6.11,11.18c-1.69,3-3.59,6.78-5.06,10.11h-.17c.25-3.79.34-8.3.34-12.85v-8.44Zm-7.3,22.6a15.9,15.9,0,0,1-5.35.93c-5.73,0-9.11-3.59-9.11-9.28,0-6.32,4-9.4,9.06-9.4a13.81,13.81,0,0,1,5.4,1.06l1.31-5.11a16.79,16.79,0,0,0-7-1.26c-8.6,0-15.51,5.4-15.51,15.09,0,8.1,5.05,14.21,14.88,14.21a18.3,18.3,0,0,0,7.29-1.22Zm-40-17.71a11.41,11.41,0,0,1,2.66-.25c3.2,0,5,1.56,5,4.17,0,2.91-2.11,4.64-5.53,4.64a9.59,9.59,0,0,1-2.15-.17Zm-6.36,23.53h6.36V349a17,17,0,0,0,2.19.12c3.8,0,7.05-.92,9.24-3a9.09,9.09,0,0,0,2.61-6.74,8.3,8.3,0,0,0-3-6.58c-1.9-1.52-4.72-2.28-8.69-2.28a53.35,53.35,0,0,0-8.68.59Zm-7.72-17.24H432.74V336h11.08v-5.27H426.28v28.42h18.13v-5.27H432.74v-6.75h10.45Zm-38.11,4.68h2.19c3.21,0,5.78,1.13,5.78,4s-2.57,4.09-5.48,4.09a19,19,0,0,1-2.49-.09Zm0-11.22a18.09,18.09,0,0,1,2.74-.17c2.91,0,4.55,1.14,4.55,3.29s-1.81,3.5-5.18,3.5h-2.11ZM398.71,359a50.06,50.06,0,0,0,7,.42c5.65,0,9.11-.92,11.17-2.57a7.57,7.57,0,0,0,3-6c0-3.66-2.4-6.11-5.64-7v-.08c3.2-1.18,4.67-3.54,4.67-6.07a6.17,6.17,0,0,0-3.41-5.56c-2.07-1.23-4.47-1.61-8.39-1.61a52.09,52.09,0,0,0-8.31.59Zm-31.19-28.29v28.42h7.33l5.78-10.25a82.55,82.55,0,0,0,4.8-10.11h.13a117.73,117.73,0,0,0-.46,12v8.39H391V330.69h-6.58l-6.11,11.18c-1.69,3-3.59,6.78-5.06,10.11h-.17c.26-3.79.34-8.3.34-12.85v-8.44Zm-31.16,0v28.42h6.45V347.22h10.58v11.89h6.41V330.69h-6.41v10.92H342.81V330.69Zm-29.55,0,9.57,19.52a1.34,1.34,0,0,1,.08,1.31,4.12,4.12,0,0,1-3.83,2.66,8.48,8.48,0,0,1-2.11-.22l-.47,5.15a8.77,8.77,0,0,0,3.17.46,9.15,9.15,0,0,0,7.54-3.75c2.11-2.61,3.88-6.91,5.61-11.34l5.31-13.79h-6.74l-3.08,9.91c-.72,2.4-1.18,4.3-1.56,5.52h-.13c-.63-1.72-1.22-3.41-2-5.43l-4.13-10Zm404.56-52.84c.33,3.54,2.44,5.19,6.15,5.19s6.11-1.56,6.37-5.19h-4.3c-.17,1.65-.68,2.57-2,2.57s-1.82-.92-1.86-2.57Zm-5.49,6.49v28.42h7.34L719,302.51a82.55,82.55,0,0,0,4.8-10.11h.13a117.73,117.73,0,0,0-.46,12v8.39h5.9V284.34h-6.58l-6.11,11.18c-1.69,3-3.58,6.78-5.06,10.11h-.17c.25-3.79.34-8.3.34-12.85v-8.44ZM691.3,312.76h6.41V284.34H691.3ZM674.22,299.1a16.12,16.12,0,0,1,2.28-.17c2.45,0,5.44,1.31,5.44,4.55s-2.7,4.77-5.52,4.77a11,11,0,0,1-2.2-.17Zm-6.36-14.76v28.29a49.34,49.34,0,0,0,6.87.42c4.17,0,8.94-.84,11.68-3.62a8.57,8.57,0,0,0,2.27-6.12c0-6.4-5.39-9.31-11.25-9.31a22.27,22.27,0,0,0-3.16.25v-9.91Zm-31.16,0v28.42h6.45V300.87h10.58v11.89h6.41V284.34h-6.41v10.92H643.15V284.34Zm-31.15,0v28.42H612V300.87h10.58v11.89H629V284.34h-6.41v10.92H612V284.34Zm-7.72,11.18H587.38v-5.91h11.08v-5.27H580.93v28.42h18.12v-5.27H587.38v-6.75h10.45Zm-37.27,4.67h2.2c3.2,0,5.77,1.14,5.77,4s-2.57,4.09-5.48,4.09a19,19,0,0,1-2.49-.09Zm0-11.21a18.09,18.09,0,0,1,2.74-.17c2.91,0,4.56,1.14,4.56,3.29s-1.82,3.5-5.19,3.5h-2.11Zm-6.36,23.65a49.78,49.78,0,0,0,6.95.42c5.65,0,9.11-.92,11.18-2.57a7.57,7.57,0,0,0,2.95-6c0-3.67-2.41-6.11-5.65-7v-.08c3.2-1.18,4.68-3.54,4.68-6.07a6.21,6.21,0,0,0-3.42-5.57c-2.06-1.22-4.47-1.6-8.39-1.6a52,52,0,0,0-8.3.59Zm-19.73.13h6.45v-23h7.76v-5.4H526.84v5.4h7.63Zm-13.58-5.82a15.9,15.9,0,0,1-5.35.93c-5.74,0-9.11-3.59-9.11-9.28,0-6.32,4-9.4,9.07-9.4a13.79,13.79,0,0,1,5.39,1.06l1.31-5.11a16.79,16.79,0,0,0-7-1.26c-8.6,0-15.51,5.4-15.51,15.09,0,8.1,5.05,14.21,14.88,14.21a18.3,18.3,0,0,0,7.29-1.22Zm-40-17.71a11.41,11.41,0,0,1,2.66-.25c3.2,0,5,1.56,5,4.17,0,2.91-2.11,4.64-5.53,4.64a9.64,9.64,0,0,1-2.15-.17Zm-6.36,23.53h6.36V302.6a17.09,17.09,0,0,0,2.2.12c3.79,0,7-.92,9.23-3a9.09,9.09,0,0,0,2.61-6.74,8.3,8.3,0,0,0-3-6.58c-1.9-1.52-4.73-2.28-8.69-2.28a53.35,53.35,0,0,0-8.68.59Zm-21.38-12.1,1.69-6c.46-1.64.88-3.79,1.31-5.48h.08c.42,1.69.93,3.79,1.43,5.48l1.77,6Zm7.21,4.8,2.19,7.3h6.92l-8.81-28.42h-8.44l-8.68,28.42h6.66l2-7.3Zm-36.3-15.89h6.2v18h-9.44a24.64,24.64,0,0,0,2-4.81,33.54,33.54,0,0,0,1.26-9.35Zm-5.94-5.23v7.59a34.83,34.83,0,0,1-1.14,9.45,28.65,28.65,0,0,1-2.7,6.32l-2.36.17.25,12.1h4.89l.34-7.21H434l.34,7.21h4.89l.3-12.1-2.83-.17V284.34Zm-30.57,0,9.57,19.52a1.34,1.34,0,0,1,.09,1.31,4.14,4.14,0,0,1-3.84,2.66,8.54,8.54,0,0,1-2.11-.22l-.46,5.15a8.71,8.71,0,0,0,3.16.46,9.18,9.18,0,0,0,7.55-3.75c2.1-2.61,3.87-6.91,5.6-11.34l5.31-13.79h-6.74l-3.08,9.91c-.71,2.4-1.18,4.3-1.56,5.52h-.12c-.64-1.73-1.23-3.41-2-5.44l-4.13-10Zm-6.2,22.6a15.9,15.9,0,0,1-5.35.93c-5.73,0-9.11-3.59-9.11-9.28,0-6.32,4-9.4,9.07-9.4a13.75,13.75,0,0,1,5.39,1.06l1.31-5.11a16.79,16.79,0,0,0-7-1.26c-8.6,0-15.51,5.4-15.51,15.09,0,8.1,5.06,14.21,14.88,14.21a18.3,18.3,0,0,0,7.29-1.22Zm-38.19-18c4.43,0,6.87,4.39,6.87,9.49,0,5.52-2.49,9.65-6.83,9.65s-6.91-3.92-6.91-9.49,2.53-9.65,6.87-9.65m.17-5.1c-8.39,0-13.83,6.37-13.83,14.88,0,8.1,4.93,14.46,13.36,14.46s14-5.65,14-15c0-7.85-4.77-14.38-13.49-14.38m-33.86.46v28.42h6.45V289.61h10.75v-5.27ZM712,231.5c.33,3.54,2.44,5.19,6.15,5.19s6.11-1.56,6.37-5.19h-4.3c-.17,1.64-.68,2.57-2,2.57s-1.82-.93-1.86-2.57ZM706.52,238v28.42h7.33l5.78-10.25a82.55,82.55,0,0,0,4.8-10.11h.13a117.73,117.73,0,0,0-.46,12v8.39H730V238h-6.58l-6.11,11.18c-1.69,3-3.58,6.78-5.06,10.11h-.17c.25-3.79.34-8.3.34-12.85V238Zm-31.2,0v28.42h7.33l5.78-10.25a82.59,82.59,0,0,0,4.81-10.11h.12a117.73,117.73,0,0,0-.46,12v8.39h5.9V238h-6.57l-6.12,11.18c-1.69,3-3.58,6.78-5.06,10.11h-.17c.26-3.79.34-8.3.34-12.85V238Zm-27.62,0v28.42h6.37V254.52h1.22c3.46,0,4.77,2.44,5.74,5.65a43,43,0,0,0,2.19,6.24h6.91a77.27,77.27,0,0,1-3.28-8.94c-1.19-3.41-2.83-5.94-6.5-6.87L670.26,238h-7.8l-7.84,11.81h-.55V238Zm-7.29,22.6a15.9,15.9,0,0,1-5.35.93c-5.74,0-9.11-3.59-9.11-9.28,0-6.32,4-9.4,9.06-9.4a14.05,14.05,0,0,1,5.4,1l1.31-5.1a16.79,16.79,0,0,0-7-1.26c-8.6,0-15.51,5.39-15.51,15.09,0,8.1,5,14.21,14.88,14.21a18.34,18.34,0,0,0,7.29-1.22Zm-40.89-7.84a21,21,0,0,1,2.48-.17c3.08,0,5.57,1.35,5.57,4.6s-2.53,4.72-5.65,4.72a14.23,14.23,0,0,1-2.4-.17ZM593.15,238v28.29a50,50,0,0,0,7,.42c4.42,0,9.19-.84,11.93-3.62a8.71,8.71,0,0,0,2.28-6.2c0-6.33-5.19-9.23-11.3-9.23-1.23,0-2.58.12-3.46.21V238Zm-26.85,0v12.44c0,4.3-.43,7.93-2.15,9.7a5.31,5.31,0,0,1-3.25,1.51l.8,5.19a11.63,11.63,0,0,0,5.65-1.39c4.3-2.53,5.23-8.14,5.23-15.43v-6.75H579v23.15h6.41V238Zm-23.11,4.64c4.43,0,6.87,4.39,6.87,9.49,0,5.52-2.48,9.65-6.82,9.65s-6.92-3.92-6.92-9.48,2.53-9.66,6.87-9.66m.17-5.1c-8.39,0-13.83,6.36-13.83,14.88,0,8.1,4.93,14.46,13.37,14.46s14-5.65,14-15c0-7.85-4.76-14.38-13.49-14.38m-43.17.46v28.42h6.45V243.26h10.08v23.15h6.45V238Zm-20,4.64c4.42,0,6.87,4.39,6.87,9.49,0,5.52-2.49,9.65-6.83,9.65s-6.91-3.92-6.91-9.48,2.52-9.66,6.87-9.66m.17-5.1c-8.4,0-13.83,6.36-13.83,14.88,0,8.1,4.93,14.46,13.36,14.46s14-5.65,14-15c0-7.85-4.77-14.38-13.49-14.38m-29.94,28.88h6.45v-23h7.76V238H442.81v5.4h7.63ZM437,260.59a16,16,0,0,1-5.36.93c-5.73,0-9.11-3.59-9.11-9.28,0-6.32,4-9.4,9.07-9.4a14.05,14.05,0,0,1,5.4,1l1.3-5.1a16.76,16.76,0,0,0-7-1.26c-8.6,0-15.51,5.39-15.51,15.09,0,8.1,5.06,14.21,14.88,14.21a18.36,18.36,0,0,0,7.3-1.22Zm-41.49-6.28,1.69-6c.46-1.65.88-3.8,1.3-5.48h.09c.42,1.68.93,3.79,1.43,5.48l1.77,6Zm7.21,4.8,2.19,7.3h6.92L403.06,238h-8.44l-8.68,28.42h6.66l2-7.3Zm-35.12-5.27h2.19c3.21,0,5.78,1.14,5.78,4s-2.57,4.09-5.48,4.09a19,19,0,0,1-2.49-.09Zm0-11.21a18.09,18.09,0,0,1,2.74-.17c2.91,0,4.56,1.14,4.56,3.29s-1.82,3.5-5.19,3.5h-2.11Zm-6.36,23.65a49.78,49.78,0,0,0,7,.42c5.65,0,9.11-.92,11.18-2.57a7.57,7.57,0,0,0,2.95-6c0-3.66-2.41-6.11-5.65-7V251c3.2-1.18,4.68-3.54,4.68-6.07a6.21,6.21,0,0,0-3.42-5.57c-2.07-1.22-4.47-1.6-8.39-1.6a50.79,50.79,0,0,0-8.3.59Zm-7.72-17.11H343.1v-5.91h11.09V238H336.65v28.42h18.13v-5.27H343.1v-6.75h10.46Zm-24.2,11.42a15.9,15.9,0,0,1-5.35.93c-5.74,0-9.11-3.59-9.11-9.28,0-6.32,4-9.4,9.07-9.4a14,14,0,0,1,5.39,1l1.31-5.1a16.79,16.79,0,0,0-7-1.26c-8.6,0-15.51,5.39-15.51,15.09,0,8.1,5.06,14.21,14.88,14.21a18.34,18.34,0,0,0,7.29-1.22Z" transform="translate(-111.2 -213.26)"/></svg>